<?xml version="1.0" encoding="UTF-8"?>
<svg id="Layer_2" data-name="Layer 2" xmlns="http://www.w3.org/2000/svg" viewBox="0 0 390.94 65.23">
  <defs>
    <style>
      .cls-1 {
        fill: #fff;
      }
    </style>
  </defs>
  <g id="Layer_1-2" data-name="Layer 1">
    <g>
      <path class="cls-1" d="M0,65.23l4.12-7.06,343.95-.13.61-.41,12.9-21.15h-10.43s-9.53,15.92-9.53,15.92h-8.89s22.79-39.02,22.79-39.02h27.43s-30.39,51.85-30.39,51.85H0ZM370.6,20.82h-10.69c-1.86,2.67-3.4,5.63-5.02,8.47h10.69s5.02-8.47,5.02-8.47Z"/>
      <path class="cls-1" d="M390.94.03v.26c-1.53,1.32-2.97,5.87-4.25,6.93-.24.2-.42.31-.75.28l-274.81-.02c-.66.11-.83.88-1.2,1.37l-24.81,43.55h-8.37S101.99,7.47,101.99,7.47H32.97c1.42-1.68,2.74-5.63,4.15-7.03.27-.27.38-.49.86-.43l352.97.02Z"/>
      <path class="cls-1" d="M57.43,13.37l-22.28,39.02h-8.37s9.27-15.92,9.27-15.92h-10.43s-9.53,15.92-9.53,15.92H7.21S30,13.37,30,13.37h27.43ZM45.07,20.82h-10.69c-1.86,2.67-3.4,5.63-5.02,8.47h10.69s5.02-8.47,5.02-8.47Z"/>
      <path class="cls-1" d="M142.16,13.37l-22.53,39.02h-27.43s22.53-39.02,22.53-39.02h27.43ZM129.54,20.82h-10.69s-13.78,24.13-13.78,24.13h10.43s14.04-24.13,14.04-24.13Z"/>
      <path class="cls-1" d="M126.45,52.39l22.41-38.89,23.05-.13c.93.17,1.57,3.18,2.13,4.02l-17.19,30.25c-1.39,2.11-3.97,3.05-5.8,4.74h-24.59ZM163.79,20.82h-10.69s-13.78,24.13-13.78,24.13h10.43s14.04-24.13,14.04-24.13Z"/>
      <polygon class="cls-1" points="293.59 13.37 293.59 33.91 306.34 13.37 314.46 13.37 291.66 52.39 285.87 52.39 285.87 31.09 272.86 52.39 264.49 52.39 287.03 13.37 293.59 13.37"/>
      <polygon class="cls-1" points="210.92 13.37 206.38 20.78 187.74 20.94 182.85 29.29 201.91 29.29 197.62 36.44 178.77 36.52 174.1 44.95 192.9 44.95 188.39 52.39 161.22 52.39 183.75 13.37 210.92 13.37"/>
      <polygon class="cls-1" points="279.69 13.37 275.14 20.78 256.51 20.94 251.62 29.29 270.67 29.29 266.38 36.44 247.54 36.52 242.86 44.95 261.66 44.95 257.15 52.39 229.98 52.39 252.52 13.37 279.69 13.37"/>
      <polygon class="cls-1" points="348.45 13.37 343.9 20.78 325.27 20.95 320.64 29.29 339.44 29.29 325.92 52.39 298.75 52.39 303.3 45 322.19 44.82 326.82 36.48 308.27 36.48 321.28 13.37 348.45 13.37"/>
      <polygon class="cls-1" points="73.14 13.37 54.86 44.95 65.54 44.95 83.83 13.37 91.94 13.37 69.66 52.39 42.24 52.39 64.51 13.37 73.14 13.37"/>
      <polygon class="cls-1" points="245.18 13.37 240.63 20.78 222 20.94 217.11 29.29 236.16 29.29 231.87 36.44 213.03 36.52 203.84 52.39 195.47 52.39 218.01 13.37 245.18 13.37"/>
    </g>
  </g>
</svg>